<svg xmlns="http://www.w3.org/2000/svg" width="35" height="35" viewBox="0 0 35 35">
  <defs>
    <style>
      .cls-1 {
        fill: #292459;
      }

      .cls-2 {
        fill: #fff;
      }
    </style>
  </defs>
  <g id="Groupe_18" data-name="Groupe 18" transform="translate(-205 -348)">
    <circle id="Ellipse_5" data-name="Ellipse 5" class="cls-1" cx="17.5" cy="17.5" r="17.5" transform="translate(205 348)"/>
    <path id="hubspot" class="cls-2" d="M16.969,7.271V4.662a2.015,2.015,0,0,0,1.16-1.813V2.788A2.015,2.015,0,0,0,16.12.777h-.062a2.015,2.015,0,0,0-2.01,2.009v.062A2.013,2.013,0,0,0,15.2,4.657l.012.005V7.277a5.7,5.7,0,0,0-2.722,1.2L12.5,8.47,5.321,2.882A2.289,2.289,0,1,0,4.26,4.27l-.011.006L11.3,9.767a5.721,5.721,0,0,0,.1,6.464l-.012-.017L9.245,18.361a1.8,1.8,0,0,0-.532-.087h0a1.864,1.864,0,1,0,1.864,1.864,1.813,1.813,0,0,0-.091-.545l0,.013,2.124-2.124A5.726,5.726,0,1,0,17,7.276l-.033,0Zm-.884,8.6a2.939,2.939,0,1,1,2.946-2.939v0a2.939,2.939,0,0,1-2.939,2.939Z" transform="translate(211.178 354.997)"/>
  </g>
</svg>
