<svg xmlns="http://www.w3.org/2000/svg" width="19.981" height="18.649" viewBox="0 0 19.981 18.649">
  <defs>
    <style>
      .cls-1 {
        fill: #fff;
      }
    </style>
  </defs>
  <g id="events" transform="translate(-1.125 -2.25)">
    <path id="Tracé_7" data-name="Tracé 7" class="cls-1" d="M28.332,15.75H27v1.332h1.332a2,2,0,0,1,2,2v2.664h1.332V19.08a3.334,3.334,0,0,0-3.33-3.33Z" transform="translate(-10.556 -5.508)"/>
    <path id="Tracé_8" data-name="Tracé 8" class="cls-1" d="M24.705,3.582a2,2,0,1,1-2,2,2,2,0,0,1,2-2m0-1.332a3.33,3.33,0,1,0,3.33,3.33A3.33,3.33,0,0,0,24.705,2.25Z" transform="translate(-8.262)"/>
    <path id="Tracé_9" data-name="Tracé 9" class="cls-1" d="M19.449,30.537H18.117V29.205a2,2,0,0,0-2-2H13.455a2,2,0,0,0-2,2v1.332H10.125V29.205a3.334,3.334,0,0,1,3.33-3.33h2.664a3.334,3.334,0,0,1,3.33,3.33Z" transform="translate(-3.672 -9.638)"/>
    <path id="Tracé_10" data-name="Tracé 10" class="cls-1" d="M15.705,13.707a2,2,0,1,1-2,2,2,2,0,0,1,2-2m0-1.332a3.33,3.33,0,1,0,3.33,3.33A3.33,3.33,0,0,0,15.705,12.375Z" transform="translate(-4.59 -4.131)"/>
    <path id="Tracé_11" data-name="Tracé 11" class="cls-1" d="M5.787,15.75H4.455a3.334,3.334,0,0,0-3.33,3.33v2.664H2.457V19.08a2,2,0,0,1,2-2H5.787Z" transform="translate(0 -5.508)"/>
    <path id="Tracé_12" data-name="Tracé 12" class="cls-1" d="M6.705,3.582a2,2,0,1,1-2,2,2,2,0,0,1,2-2m0-1.332a3.33,3.33,0,1,0,3.33,3.33A3.33,3.33,0,0,0,6.705,2.25Z" transform="translate(-0.918 0)"/>
  </g>
</svg>
