<svg id="dashboard" xmlns="http://www.w3.org/2000/svg" width="20" height="13.488" viewBox="0 0 20 13.488">
  <path id="dashboard-2" data-name="dashboard" d="M10,5.861A10.007,10.007,0,0,0,.625,19.349H3.359a7.5,7.5,0,1,1,13.281,0h2.734A10.007,10.007,0,0,0,10,5.861Zm0,3.927a1.25,1.25,0,1,0,1.25,1.25A1.25,1.25,0,0,0,10,9.788ZM6.251,11.013a1.25,1.25,0,1,0,1.25,1.25A1.25,1.25,0,0,0,6.251,11.013Zm7.5,0A1.25,1.25,0,1,0,15,12.263,1.25,1.25,0,0,0,13.749,11.013ZM10,13.466l-.98,4.9v.98h1.961v-.98Z" transform="translate(0 -5.861)" fill="#fff"/>
</svg>
