<svg xmlns="http://www.w3.org/2000/svg" width="17.142" height="20" viewBox="0 0 17.142 20">
  <defs>
    <style>
      .cls-1 {
        fill: #00b531;
      }
    </style>
  </defs>
  <path id="file-pdf-o" class="cls-1" d="M16.383,4.241a2.592,2.592,0,0,1,.536.848,2.588,2.588,0,0,1,.223.982V18.928A1.068,1.068,0,0,1,16.071,20h-15a1.032,1.032,0,0,1-.759-.313A1.036,1.036,0,0,1,0,18.928V1.072A1.032,1.032,0,0,1,.313.313,1.036,1.036,0,0,1,1.072,0h10a2.575,2.575,0,0,1,.982.223A2.6,2.6,0,0,1,12.9.759ZM11.428,1.518v4.2h4.2a1.22,1.22,0,0,0-.246-.458L11.886,1.763a1.22,1.22,0,0,0-.458-.246Zm4.285,17.053V7.143H11.071A1.068,1.068,0,0,1,10,6.071V1.428H1.428V18.571H15.713ZM9.977,11.952a8.518,8.518,0,0,0,.938.625A11.041,11.041,0,0,1,12.22,12.5q1.641,0,1.976.547a.54.54,0,0,1,.022.581.032.032,0,0,1-.011.022l-.022.022v.011q-.067.424-.792.424a4.6,4.6,0,0,1-1.283-.223,8.148,8.148,0,0,1-1.451-.592,20.1,20.1,0,0,0-4.375.926q-1.708,2.924-2.7,2.924a.65.65,0,0,1-.313-.078L3,16.928q-.011-.011-.067-.056a.461.461,0,0,1-.067-.4,2.423,2.423,0,0,1,.625-1.021,5.4,5.4,0,0,1,1.473-1.077.163.163,0,0,1,.257.067.064.064,0,0,1,.022.044q.581-.949,1.194-2.2A17.026,17.026,0,0,0,7.6,9.362a9.034,9.034,0,0,1-.341-1.78A4.292,4.292,0,0,1,7.333,6.16q.123-.447.469-.447h.246a.471.471,0,0,1,.391.167.891.891,0,0,1,.1.759.242.242,0,0,1-.044.089.291.291,0,0,1,.011.089v.335A14.61,14.61,0,0,1,8.349,9.3a5.644,5.644,0,0,0,1.629,2.656ZM3.549,16.54a4.923,4.923,0,0,0,1.529-1.763,6.359,6.359,0,0,0-.977.938,3.706,3.706,0,0,0-.552.826ZM7.991,6.272a3.322,3.322,0,0,0-.022,1.473q.011-.078.078-.491,0-.033.078-.48a.256.256,0,0,1,.044-.089.032.032,0,0,1-.011-.022.085.085,0,0,1-.011-.033A.642.642,0,0,0,8,6.228a.032.032,0,0,1-.011.022v.022ZM6.607,13.649a16.354,16.354,0,0,1,3.169-.9,1.686,1.686,0,0,1-.145-.106,2,2,0,0,1-.178-.151,5.907,5.907,0,0,1-1.417-1.964,14.889,14.889,0,0,1-.926,2.2q-.335.625-.5.926Zm7.21-.178a2.672,2.672,0,0,0-1.563-.268,4.219,4.219,0,0,0,1.384.313,1.092,1.092,0,0,0,.2-.011q0-.011-.022-.033Z"/>
</svg>
