<svg xmlns="http://www.w3.org/2000/svg" width="45.714" height="40" viewBox="0 0 45.714 40">
  <defs>
    <style>
      .cls-1 {
        fill: #7b73ce;
        fill-rule: evenodd;
      }
    </style>
  </defs>
  <g id="Groupe_56" data-name="Groupe 56" transform="translate(-1187 -462.055)">
    <path id="Tracé_47" data-name="Tracé 47" class="cls-1" d="M5.107,11.25V32.678a4.1,4.1,0,0,0,3.877,4.286h26.53a4.1,4.1,0,0,0,3.877-4.286V11.25h2.857V32.678a6.948,6.948,0,0,1-6.734,7.143H8.984A6.948,6.948,0,0,1,2.25,32.678V11.25Z" transform="translate(1187.607 462.233)"/>
    <path id="Tracé_48" data-name="Tracé 48" class="cls-1" d="M15.714,20.821a1.429,1.429,0,0,1,1.429-1.429H28.571a1.429,1.429,0,1,1,0,2.857H17.143A1.429,1.429,0,0,1,15.714,20.821ZM42.857,5.107h-40v5.714h40Zm-40-2.857A2.857,2.857,0,0,0,0,5.107v5.714a2.857,2.857,0,0,0,2.857,2.857h40a2.857,2.857,0,0,0,2.857-2.857V5.107A2.857,2.857,0,0,0,42.857,2.25Z" transform="translate(1187 459.805)"/>
  </g>
</svg>
