<svg xmlns="http://www.w3.org/2000/svg" width="18.54" height="18.145" viewBox="0 0 18.54 18.145">
  <defs>
    <style>
      .cls-1 {
        fill: #fff;
      }
    </style>
  </defs>
  <path id="Tracé_19" data-name="Tracé 19" class="cls-1" d="M21.378,17.985a8.959,8.959,0,0,1-1.562-1.823,7.858,7.858,0,0,1-.84-2.992V10.1a6.793,6.793,0,0,0-.1-1.114,4.629,4.629,0,0,1-1.394-.523,5.531,5.531,0,0,1,.249,1.642v3.073a8.859,8.859,0,0,0,1.027,3.639,10.06,10.06,0,0,0,1.518,1.866H4.344a10.06,10.06,0,0,0,1.518-1.866,8.859,8.859,0,0,0,1.027-3.639V10.1a5.475,5.475,0,0,1,5.462-5.5,5.357,5.357,0,0,1,2.961.9A4.66,4.66,0,0,1,15.151,4.4V4.012a6.582,6.582,0,0,0-2.065-.622V2.606a.831.831,0,1,0-1.661,0v.815A6.725,6.725,0,0,0,5.638,10.1v3.073a7.858,7.858,0,0,1-.84,2.992,8.959,8.959,0,0,1-1.537,1.823.622.622,0,0,0-.212.467V19.3a.622.622,0,0,0,.622.622h17.3a.622.622,0,0,0,.622-.622v-.846A.622.622,0,0,0,21.378,17.985Z" transform="translate(-3.05 -1.775)"/>
</svg>
