<svg xmlns="http://www.w3.org/2000/svg" width="20" height="20.079" viewBox="0 0 20 20.079">
  <defs>
    <style>
      .cls-1, .cls-2 {
        fill: #fff;
      }

      .cls-1 {
        fill-rule: evenodd;
      }
    </style>
  </defs>
  <g id="pen" transform="translate(-2.248 -2.057)">
    <path id="Tracé_21" data-name="Tracé 21" class="cls-1" d="M8.679,20.374a1.367,1.367,0,0,1-.533.329l-4.1,1.362a1.364,1.364,0,0,1-1.73-1.723l1.366-4.087a1.362,1.362,0,0,1,.33-.533L14.661,5.105a2.737,2.737,0,0,1,3.863,0l.8.8a2.72,2.72,0,0,1,0,3.853L8.68,20.374Zm-3.7-3.688L15.626,6.069a1.368,1.368,0,0,1,1.931,0l.8.8a1.36,1.36,0,0,1,0,1.926L7.713,19.411l-4.1,1.362Z"/>
    <path id="Tracé_22" data-name="Tracé 22" class="cls-1" d="M22.171,5.76a1.125,1.125,0,0,0-1.593,0l-7.407,7.414a1.126,1.126,0,1,1-1.593-1.593l7.412-7.41a3.375,3.375,0,0,1,4.774,0l.659.657a1.126,1.126,0,0,1-1.591,1.593l-.659-.659Z" transform="translate(-5.764)"/>
    <path id="Tracé_23" data-name="Tracé 23" class="cls-2" d="M29.909,2.716a2.25,2.25,0,0,1,3.181,0l.068.068A2.25,2.25,0,0,1,33.226,5.9L30.375,9,27,5.625Z" transform="translate(-11.569)"/>
  </g>
</svg>
