<svg xmlns="http://www.w3.org/2000/svg" width="20" height="20.056" viewBox="0 0 20 20.056">
  <defs>
    <style>
      .cls-1 {
        fill: #fff;
      }
    </style>
  </defs>
  <path id="share" class="cls-1" d="M3.3,21.181H1.125V10.29a4.771,4.771,0,0,1,.5-2.144A5.694,5.694,0,0,1,6.808,4.8h5.706V1.125h1.77l6.841,6.841-6.866,6.865H12.513V11.153H8.8a3.569,3.569,0,0,0-3.426,2.6Zm3.5-15.042A4.355,4.355,0,0,0,2.842,8.707l-.012.026a3.446,3.446,0,0,0-.367,1.558v8.934l1.627-5.829A4.91,4.91,0,0,1,8.8,9.816h5.048v3.532l5.382-5.382L13.851,2.583V6.139Z" transform="translate(-1.125 -1.125)"/>
</svg>
