<svg xmlns="http://www.w3.org/2000/svg" width="246.114" height="234.926" viewBox="0 0 246.114 234.926">
  <path id="Soustraction_1" data-name="Soustraction 1" d="M2974.927,1311.926h-55.935a11.22,11.22,0,0,1-11.187-11.187v-44.748a11.221,11.221,0,0,1,11.187-11.187v-16.78a27.968,27.968,0,1,1,55.935,0v16.78a11.22,11.22,0,0,1,11.187,11.187v44.748a11.219,11.219,0,0,1-11.187,11.187ZM2947,1261.606a8.5,8.5,0,0,0-4.282,15.844l.34.2-.113.377-6.382,21.21h20.9l-6.4-21.211-.115-.377.34-.2a8.5,8.5,0,0,0-4.284-15.844Zm-.041-50.361a16.758,16.758,0,0,0-16.781,16.78v16.78h33.561v-16.78a16.758,16.758,0,0,0-16.781-16.78Zm-61.529,78.309H2740L2952.553,1077v101.242c-.513-.061-1.036-.131-1.5-.194a30.008,30.008,0,0,0-4.1-.366,50.357,50.357,0,0,0-50.342,50.342v3.021a33.879,33.879,0,0,0-8.152,11.047,33.007,33.007,0,0,0-3.035,13.9v33.561Z" transform="translate(-2740 -1077)" fill="#ffc133"/>
</svg>
