<svg xmlns="http://www.w3.org/2000/svg" width="20" height="20" viewBox="0 0 20 20">
  <defs>
    <style>
      .cls-1 {
        fill: #fff;
      }
    </style>
  </defs>
  <path id="table-split" class="cls-1" d="M21.837,3.375H4.913A1.538,1.538,0,0,0,3.375,4.913V21.837a1.538,1.538,0,0,0,1.538,1.538H21.837a1.538,1.538,0,0,0,1.538-1.538V4.913A1.538,1.538,0,0,0,21.837,3.375Zm0,1.538V7.99H4.913V4.913ZM14.144,9.529h7.692v5.385H14.144Zm-1.538,5.385H4.913V9.529h7.692ZM4.913,16.452h7.692v5.385H4.913Zm9.231,5.385V16.452h7.692v5.385Z" transform="translate(-3.375 -3.375)"/>
</svg>
