<svg xmlns="http://www.w3.org/2000/svg" xmlns:xlink="http://www.w3.org/1999/xlink" id="Calque_1" x="0px" y="0px" viewBox="0 0 774.92 100" style="enable-background:new 0 0 774.92 100;" xml:space="preserve"><style type="text/css">	.st0{fill:#FFFFFF;}</style><g>	<path class="st0" d="M31.19,0c-5.23,0-9.99,1.33-14.13,3.96C13.65,6.11,10.84,9,8.67,12.57V1.62H0v71h9.07V32.95  c0.17-8.06,2.29-14.26,6.28-18.42c4.08-4.16,8.9-6.27,14.35-6.27c11.98,0,17.8,6.04,17.8,18.47v45.89h9.06V26.06  c0-8.25-2.25-14.72-6.67-19.24C45.46,2.3,39.17,0,31.19,0z"></path>	<path class="st0" d="M124.57,60.74V19.99c0-6.31-2.22-11.28-6.6-14.77C113.63,1.75,107.08,0,98.52,0C80.26,0,70.76,7.81,70.3,23.2  l-0.02,0.71h8.79l0.03-0.66c0.26-5.52,1.88-9.48,4.8-11.77c2.97-2.32,7.89-3.49,14.62-3.49c11.61,0,17.26,3.92,17.26,12  c0,3.28-0.88,5.74-2.61,7.31c-1.78,1.6-5.01,2.73-9.6,3.34l-10.8,1.21c-16.88,2.02-25.43,9.33-25.43,21.74  c0,6.38,2.15,11.49,6.38,15.16c4.2,3.65,10.19,5.49,17.79,5.49c11.35,0,19.61-3.93,24.59-11.7c0.21,3.27,1.12,5.79,2.7,7.5  c1.84,1.98,4.77,2.99,8.74,2.99c1.82,0,3.54-0.14,5.11-0.42l0.57-0.1v-7.47h-4.33C125.94,65.04,124.57,63.67,124.57,60.74z   M109.01,60.61L109.01,60.61c-4.62,3.84-10.38,5.78-17.1,5.78c-5.02,0-8.85-1.17-11.41-3.47c-2.54-2.28-3.82-5.46-3.82-9.47  c0-4.08,1.35-7.23,4-9.38c2.72-2.2,7.26-3.72,13.48-4.51l10.79-1.35c4.77-0.55,8.41-1.72,10.84-3.51v9.03  C115.77,51.22,113.5,56.89,109.01,60.61z"></path>	<path class="st0" d="M169.89,0c-9.78,0-17.81,3.44-23.85,10.21c-6.12,6.75-9.22,15.81-9.22,26.91c0,11.1,3.1,20.1,9.22,26.77  c6.04,6.87,14.07,10.35,23.86,10.35c9.78,0,17.9-3.48,24.13-10.34c6.03-6.67,9.08-15.68,9.08-26.77c0-11-3.05-20.05-9.09-26.91  C187.79,3.44,179.67,0,169.89,0z M193.76,37.12c0,8.88-2.17,15.94-6.45,21.01c-4.34,5.21-10.2,7.85-17.42,7.85  c-7.22,0-13.03-2.64-17.28-7.85c-4.28-5.07-6.45-12.13-6.45-21.01c0-8.88,2.17-15.99,6.45-21.14c4.34-5.12,10.15-7.72,17.28-7.72  c7.22,0,13.08,2.6,17.42,7.72C191.59,21.13,193.76,28.24,193.76,37.12z"></path>	<path class="st0" d="M251.15,0.69c-10.26,0-18.57,3.33-24.97,9.98c-6.29,6.66-9.44,15.48-9.44,26.45s3.19,19.79,9.58,26.45  c6.38,6.66,14.75,9.98,25.09,9.98c8.28,0,15.29-2.09,21.05-6.27c5.76-4.18,9.54-9.83,11.33-16.94h-16.33  c-2.88,6.66-8.19,9.99-15.92,9.99c-5.22,0-9.38-1.51-12.48-4.52c-3.1-3.01-4.97-7.49-5.6-13.42h52.08v-4.05  c0-11.24-3.1-20.33-9.31-27.25C270.04,4.16,261.67,0.69,251.15,0.69z M233.61,30.51c1.62-11.06,7.42-16.59,17.41-16.59  c4.86,0,8.82,1.48,11.88,4.45c3.06,2.97,4.95,7.02,5.67,12.14H233.61z"></path>	<path class="st0" d="M334.67,0.69c-9.18,0-16.42,3.87-21.72,11.61V2.31h-16.46v69.62h17V32.94c0-5.49,1.51-9.78,4.52-12.89  c3.01-3.1,6.68-4.65,11-4.65c8.72,0,13.09,4.41,13.09,13.22v43.31h17V25.79c0-8.01-2.18-14.19-6.54-18.55  C348.19,2.87,342.23,0.69,334.67,0.69z"></path>	<path class="st0" d="M404.16,0.69c-10.26,0-18.57,3.33-24.97,9.98c-6.29,6.66-9.44,15.48-9.44,26.45s3.19,19.79,9.58,26.45  c6.38,6.66,14.75,9.98,25.09,9.98c8.28,0,15.29-2.09,21.05-6.27c5.76-4.18,9.54-9.83,11.33-16.94h-16.33  c-2.88,6.66-8.19,9.99-15.92,9.99c-5.22,0-9.38-1.51-12.48-4.52c-3.1-3.01-4.97-7.49-5.6-13.42h52.08v-4.05  c0-11.24-3.1-20.33-9.31-27.25C423.05,4.16,414.68,0.69,404.16,0.69z M386.62,30.51c1.62-11.06,7.42-16.59,17.41-16.59  c4.86,0,8.82,1.48,11.88,4.45c3.06,2.97,4.95,7.02,5.67,12.14H386.62z"></path>	<path class="st0" d="M465.96,14.72V2.31H449.5v69.63h17V36.58c0-6.38,1.73-11.22,5.19-14.5c3.47-3.29,8.43-4.93,14.91-4.93h4.32  V1.5c-1.26-0.18-2.65-0.27-4.18-0.27C476.75,1.23,469.83,5.73,465.96,14.72z"></path>	<path class="st0" d="M547.19,11.89c-4.86-7.46-12.19-11.2-21.99-11.2c-9.45,0-17,3.24-22.67,9.72c-5.76,6.38-8.63,14.98-8.63,25.77  c0,10.7,2.88,19.25,8.63,25.63c5.76,6.57,13.36,9.85,22.8,9.85c9.18,0,16.28-3.46,21.32-10.39v8.77c0,5.49-1.46,9.67-4.38,12.55  c-2.92,2.88-7.18,4.32-12.75,4.32c-9.54,0-14.7-3.73-15.52-11.2h-16.73c0.54,7.56,3.58,13.49,9.11,17.81  c5.53,4.32,13.16,6.48,22.87,6.48c10.98,0,19.45-2.7,25.44-8.1c5.98-5.4,8.97-12.82,8.97-22.26V2.31h-16.46V11.89z M542.33,51.96  c-3.15,3.78-7.55,5.67-13.22,5.67c-5.49,0-9.83-1.89-13.02-5.67c-3.2-3.78-4.79-9-4.79-15.65c0-6.75,1.59-12.03,4.79-15.85  c3.19-3.82,7.53-5.74,13.02-5.74c5.67,0,10.07,1.89,13.22,5.67c3.15,3.78,4.73,9.04,4.73,15.79  C547.05,42.92,545.48,48.18,542.33,51.96z"></path>	<path class="st0" d="M616.54,19.85c-4.77,15.66-8.5,28.56-11.2,38.73c-3.42-13.49-7.1-26.45-11.06-38.86l-5.67-17.41h-18.35  l20.24,57.21c2.16,6.02,3.24,10.7,3.24,14.03s-0.99,6.03-2.97,8.1c-1.98,2.07-4.81,3.1-8.5,3.1h-6.48v13.35  c2.16,0.27,4.63,0.41,7.42,0.41c8.36,0,14.75-1.53,19.16-4.59c4.32-2.97,7.92-8.41,10.79-16.33l26.85-75.29h-17.81L616.54,19.85z"></path>	<path class="st0" d="M683.38,37.72l-7.17-1.43c-6.55-1.4-11.18-3.22-13.75-5.39c-2.53-2.14-3.76-5.08-3.76-9.01  c0-3.84,1.47-6.8,4.49-9.03c3.04-2.26,7.47-3.4,13.17-3.4c13.08,0,19.7,5.02,20.23,15.34l0.03,0.65h7.61l-0.01-0.7  c-0.14-6.8-2.57-12.27-7.22-16.25c-4.62-3.96-11.57-5.96-20.65-5.96c-7.7,0-13.89,1.74-18.41,5.17c-4.57,3.47-6.88,8.25-6.88,14.19  c0,5.85,1.87,10.51,5.56,13.84c3.64,3.28,9.23,5.72,16.63,7.24l7.17,1.43c6.7,1.41,11.49,3.24,14.22,5.45c2.69,2.18,4,5.07,4,8.85  c0,4.6-1.65,8.09-5.06,10.68c-3.42,2.6-8.38,3.91-14.76,3.91c-14.73,0-22.12-5.82-22.59-17.8l-0.03-0.66h-7.63l0.03,0.72  c0.63,16.36,10.8,24.66,30.22,24.66c8.6,0,15.39-1.93,20.17-5.74c4.84-3.84,7.29-9.15,7.29-15.76c0-5.57-1.81-10.1-5.39-13.47  C697.36,41.9,691.47,39.38,683.38,37.72z"></path>	<path class="st0" d="M744.62,4.17h-7.69l-30.09,74.39h7.94l8.92-22.05h34.35l8.92,22.05h7.95L744.62,4.17z M755.24,49.7h-28.83  l7.52-18.74c2.84-7.17,5.14-13.08,6.86-17.6c2.5,6.43,5.8,14.75,9.81,24.78L755.24,49.7z"></path></g></svg>